# xmcd CD database file
#
# Track frame offsets:
#	183
#	7510
#	18445
#	38050
#	50140
#	74363
#	88150
#	99678
#	116345
#	132680
#	149363
#	163890
#
# Disc length: 2444 seconds
#
# Revision: 0
# Processed by: cddbd v1.5.2PL0 Copyright (c) Steve Scherf et al.
# Submitted via: CDex 1.51
#
DISCID=a5098a0c
DTITLE=Jimmy Walker - Small Town Baby
DYEAR=1992
DGENRE=Blues
TTITLE0=Getting Out Of Town
TTITLE1=I Had Lots Of Troubles
TTITLE2=Easy Rider
TTITLE3=Mr. Freddie
TTITLE4=Come On, Get Your Morning Exercise
TTITLE5=Sweet Home Chicago
TTITLE6=My Baby Left Me This Morning
TTITLE7=Small Town Baby
TTITLE8=South Side Impressions
TTITLE9=King Bee
TTITLE10=Stompin' With Jimmy
TTITLE11=Kansas City Baby
EXTD=YEAR: 1992
EXTT0=
EXTT1=
EXTT2=
EXTT3=
EXTT4=
EXTT5=
EXTT6=
EXTT7=
EXTT8=
EXTT9=
EXTT10=
EXTT11=
PLAYORDER=
